<svg xmlns="http://www.w3.org/2000/svg" viewBox="11.700 -210.000 520.500 210.000"><path d="M131.700-67.500L86.700-67.500L86.700-45L56.700-45L56.700-165L86.700-165L86.700-142.500L131.700-142.500L131.700-180C131.700-196.500 118.200-210 101.700-210L41.700-210C25.200-210 11.700-196.500 11.700-180L11.700-30C11.700-13.500 25.200 0 41.700 0L101.700 0C118.200 0 131.700-13.500 131.700-30M267.900-210L147.900-210L147.900-165L185.400-165L185.400 0L230.400 0L230.400-165L267.900-165M403.800-106.500L403.800-180C403.800-196.500 390.300-210 373.800-210L283.800-210L283.800 0L328.800 0L328.800-76.500L337.200-76.500L357 0L403.800 0L380.400-77.100C393.600-80.100 403.800-92.100 403.800-106.500M328.800-121.500L328.800-165L358.800-165L358.800-121.500M532.200-45L472.200-45L472.200-210L427.200-210L427.200 0L532.200 0" fill="#000"/></svg>