<svg xmlns="http://www.w3.org/2000/svg" width="5000" height="4524" viewBox="0 0 5000 4524" version="1.1">
	<path d="M 100.100 122.250 L 3.080 244.500 3.040 1561.301 L 3 2878.101 102.250 2998.526 L 201.500 3118.951 511.750 3118.976 L 822 3119 822 2943.500 L 822 2768 683 2768 L 544 2768 544 1555 L 544 342 683 342 L 822 342 822 171 L 822 0 509.561 0 L 197.121 0 100.100 122.250 M 1046 169 L 1046 338 1187 338 L 1328 338 1328.011 1612.250 L 1328.021 2886.500 1427.261 3002.710 L 1526.500 3118.921 1699.750 3118.960 L 1873 3119 1873 1730.500 L 1873 342 2016.500 342 L 2160 342 2160 171 L 2160 0 1603 0 L 1046 0 1046 169 M 2396 1559.499 L 2396 3119 2681 3119 L 2966 3119 2966 2422.497 L 2966 1725.993 3109.250 1726.247 L 3252.500 1726.500 3252.751 2422.750 L 3253.001 3119 3521.001 3119 L 3789 3119 3788.968 2470.750 L 3788.937 1822.500 3685.902 1691.144 C 3629.233 1618.899, 3583.098 1559.274, 3583.379 1558.644 C 3583.661 1558.015, 3630.021 1504.400, 3686.401 1439.500 L 3788.911 1321.500 3788.903 787 L 3788.895 252.500 3690.109 126.500 L 3591.322 0.500 2993.661 0.249 L 2396 -0.002 2396 1559.499 M 4164.026 1441.250 L 4164.053 2882.500 4265.276 3000.688 L 4366.500 3118.876 4683.250 3118.938 L 5000 3119 5000 2943.500 L 5000 2768 4865 2768 L 4730 2768 4730 1384 L 4730 0 4447 0 L 4164 0 4164.026 1441.250 M 2966 863 L 2966 1388 3111.500 1388 L 3257 1388 3257 863 L 3257 338 3111.500 338 L 2966 338 2966 863 M 2941 4110.036 L 2941 4524.072 3082.250 4523.732 C 3222.482 4523.395, 3223.561 4523.377, 3232 4521.263 C 3249.116 4516.973, 3259.715 4512.393, 3273.015 4503.539 C 3298.888 4486.314, 3316.256 4460.513, 3323.190 4429 L 3325.500 4418.500 3325.500 4110 C 3325.500 3771.299, 3325.922 3796.334, 3319.901 3777.906 C 3305.963 3735.247, 3267.800 3703.225, 3223.566 3697.072 C 3218.385 3696.352, 3170.773 3696, 3078.428 3696 L 2941 3696 2941 4110.036 M 4717.500 3698.109 C 4700.177 3700.605, 4677.634 3710.094, 4663.215 3720.959 C 4639.936 3738.500, 4624.415 3763.653, 4618.275 3793.790 C 4615.513 3807.345, 4615.521 4414.965, 4618.284 4427.765 C 4629.566 4480.052, 4669.768 4517.027, 4721.850 4523.020 C 4737.975 4524.875, 4895.487 4523.778, 4904.576 4521.747 C 4954.979 4510.485, 4991.223 4472.543, 4999.018 4422.880 C 4999.877 4417.407, 5000.178 4336.563, 5000.183 4110 C 5000.189 3777.872, 5000.517 3798.635, 4994.974 3779.941 C 4992.349 3771.089, 4984.330 3755.053, 4978.252 3746.500 C 4960.121 3720.989, 4929.490 3702.374, 4898.566 3698.072 C 4889.218 3696.772, 4726.548 3696.805, 4717.500 3698.109 M 97.678 3699.502 C 54.013 3706.938, 17.809 3739.503, 4.294 3783.500 L 1.529 3792.500 1.224 3858.360 C 0.937 3920.253, 1.038 3924.921, 2.901 3935.860 C 5.222 3949.490, 9.522 3963.257, 15.001 3974.601 C 24.313 3993.884, 20.350 3989.660, 157.999 4127 C 297.505 4266.193, 289.015 4257.018, 292.631 4272.500 C 294.357 4279.889, 294.500 4285.580, 294.500 4347 L 294.500 4413.500 292.130 4418.742 C 289.255 4425.102, 283.975 4430.074, 277.404 4432.609 C 272.739 4434.408, 268.554 4434.500, 191.500 4434.500 L 110.500 4434.500 104.776 4431.689 C 101.627 4430.143, 97.533 4427.104, 95.676 4424.935 C 88.949 4417.076, 89 4417.653, 89 4349.385 L 89 4288 44.962 4288 L 0.924 4288 1.236 4358.250 C 1.546 4427.656, 1.576 4428.594, 3.799 4436.290 C 17.536 4483.862, 57.786 4518.110, 105.754 4523.042 C 113.040 4523.792, 143.066 4524.016, 199 4523.738 C 271.977 4523.376, 282.308 4523.134, 288.500 4521.644 C 337.845 4509.773, 370.483 4477.078, 381.204 4428.777 C 385.190 4410.820, 384.695 4278.913, 380.557 4256.500 C 376.672 4235.454, 367.291 4213.145, 356.057 4198.236 C 352.242 4193.173, 303.351 4143.712, 223.717 4064.354 C 87.683 3928.790, 94.187 3935.765, 90.532 3921.540 C 88.255 3912.680, 88.252 3811.553, 90.528 3804.872 C 92.629 3798.706, 97.235 3793.442, 103.351 3790.216 L 108.500 3787.500 192 3787.500 L 275.500 3787.500 279.500 3789.662 C 284.939 3792.603, 289.441 3797.509, 292.199 3803.500 L 294.500 3808.500 294.792 3871.250 L 295.084 3934 339.542 3934 L 384 3934 383.985 3878.250 C 383.964 3797.157, 382.936 3787.742, 371.567 3764.500 C 356.150 3732.983, 328.994 3710.744, 294.294 3701.218 L 284.500 3698.530 195 3698.350 C 124.370 3698.207, 103.851 3698.450, 97.678 3699.502 M 969.239 3743.250 L 969.500 3786.500 1041.750 3786.757 L 1114 3787.013 1114 4149.507 L 1114 4512 1158 4512 L 1202 4512 1202 4149.500 L 1202 3787 1274 3787 L 1346 3787 1346 3743.500 L 1346 3700 1157.489 3700 L 968.979 3700 969.239 3743.250 M 1932.003 4055.750 C 1932.005 4308.926, 1932.324 4414.095, 1933.109 4420.500 C 1939.339 4471.344, 1978.897 4512.838, 2030 4522.135 C 2035.962 4523.220, 2055.337 4523.500, 2124.500 4523.500 C 2205.684 4523.500, 2212.068 4523.375, 2220 4521.636 C 2270.695 4510.516, 2307.847 4470.344, 2313.969 4420.026 C 2314.659 4414.353, 2315 4293.956, 2315 4055.776 L 2315 3700 2270.500 3700 L 2226 3700 2225.994 4055.750 C 2225.991 4294.792, 2225.654 4412.706, 2224.967 4415.177 C 2223.060 4422.046, 2218.003 4428.198, 2211.571 4431.478 L 2205.642 4434.500 2123.571 4434.500 C 2042.026 4434.500, 2041.471 4434.486, 2036.911 4432.377 C 2030.500 4429.412, 2025.553 4424.094, 2023.095 4417.524 L 2021 4411.925 2021 4055.962 L 2021 3700 1976.500 3700 L 1932 3700 1932.003 4055.750 M 3945 4112 L 3945 4524 3989 4524 L 4033 4524 4033 4112 L 4033 3700 3989 3700 L 3945 3700 3945 4112 M 3030 4109.980 L 3030 4435 3119.790 4435 C 3197.171 4435, 3210.403 4434.788, 3215.540 4433.468 C 3227.968 4430.274, 3234.307 4422.366, 3236.047 4407.886 C 3236.709 4402.378, 3236.960 4297.915, 3236.778 4103.500 C 3236.514 3822.578, 3236.409 3807.268, 3234.722 3802.944 C 3232.120 3796.275, 3227.713 3791.498, 3221.230 3788.314 L 3215.500 3785.500 3122.750 3785.230 L 3030 3784.960 3030 4109.980 M 4723.909 3787.542 C 4717.645 3789.487, 4710.811 3795.746, 4707.889 3802.212 L 4705.500 3807.500 4705.500 4110.500 L 4705.500 4413.500 4708.301 4419.204 C 4711.422 4425.559, 4715.293 4429.290, 4722 4432.408 C 4726.451 4434.477, 4727.401 4434.500, 4808.500 4434.500 C 4890.019 4434.500, 4890.526 4434.488, 4895 4432.376 C 4900.427 4429.814, 4905.396 4425.035, 4908.330 4419.553 L 4910.500 4415.500 4910.782 4112.500 C 4910.984 3895.560, 4910.754 3808.364, 4909.971 3805.500 C 4908.147 3798.826, 4902.851 3792.565, 4896.318 3789.357 L 4890.500 3786.500 4809.500 3786.308 C 4741.785 3786.147, 4727.747 3786.350, 4723.909 3787.542" stroke="none" fill="#000000" fill-rule="evenodd"/>
</svg>